<?xml version="1.0" encoding="iso-8859-1"?>
<!-- Generator: Adobe Illustrator 19.0.0, SVG Export Plug-In . SVG Version: 6.00 Build 0)  -->
<svg version="1.1" id="Layer_1" xmlns="http://www.w3.org/2000/svg" xmlns:xlink="http://www.w3.org/1999/xlink" x="0px" y="0px"
	 viewBox="0 0 512 512" style="enable-background:new 0 0 512 512;" xml:space="preserve">
	<path d="M511.177,197.119c-1.975-6.079-7.23-10.51-13.554-11.429l-156.54-22.758L271.059,21.066
		c-2.829-5.731-8.667-9.359-15.059-9.359c-6.391,0-12.23,3.628-15.059,9.359l-70.024,141.866L14.377,185.689
		c-6.324,0.919-11.58,5.35-13.554,11.429c-1.976,6.079-0.328,12.753,4.25,17.214L118.338,324.74L91.619,480.664
		c-1.08,6.3,1.51,12.665,6.681,16.422c5.17,3.756,12.024,4.252,17.683,1.279l140.016-73.593l140.014,73.593
		c5.688,2.99,12.54,2.457,17.683-1.279c5.171-3.756,7.762-10.123,6.681-16.422L393.66,324.741l113.267-110.409
		C511.505,209.87,513.153,203.196,511.177,197.119z M363.897,306.851c-3.958,3.857-5.763,9.414-4.83,14.861l22.463,131.097
		l-117.718-61.875c-4.89-2.572-10.735-2.573-15.625,0l-117.719,61.875l22.463-131.097c0.934-5.446-0.872-11.004-4.83-14.861
		L52.878,214.03l131.607-19.133c5.469-0.795,10.195-4.23,12.643-9.185L256,66.439l58.872,119.274
		c2.447,4.955,7.174,8.39,12.643,9.185l131.607,19.133L363.897,306.851z" 
		fill="#fff" fill-opacity="context-fill-opacity"/>
</svg>
